<?xml version="1.0" encoding="utf-8"?>
<!-- Generator: Adobe Illustrator 16.0.0, SVG Export Plug-In . SVG Version: 6.00 Build 0)  -->
<!DOCTYPE svg PUBLIC "-//W3C//DTD SVG 1.1//EN" "http://www.w3.org/Graphics/SVG/1.1/DTD/svg11.dtd">
<svg version="1.1" xmlns="http://www.w3.org/2000/svg" xmlns:xlink="http://www.w3.org/1999/xlink" x="0px" y="0px" width="600px"
	 height="800px" viewBox="0 0 600 800" enable-background="new 0 0 600 800" xml:space="preserve">
<g id="Layer_3">
	
		<rect x="36.016" y="521.21" transform="matrix(0.9366 -0.3504 0.3504 0.9366 -201.6466 106.8055)" fill="#00FFFF" width="316.565" height="178.754"/>
</g>
<g id="Layer_2">
	
		<rect x="344.978" y="501.819" transform="matrix(0.9669 0.255 -0.255 0.9669 175.6437 -91.8723)" fill="#0000FF" width="194.218" height="259.072"/>
</g>
<g id="Layer_4">
	
		<rect x="42.397" y="268.99" transform="matrix(0.9977 -0.0682 0.0682 0.9977 -26.9126 10.4892)" fill="#FF00FF" width="195.436" height="260.566"/>
</g>
<g id="Layer_5">
	
		<rect x="71.422" y="78.78" transform="matrix(0.9922 0.1243 -0.1243 0.9922 23.4055 -23.6173)" fill="#FFFF00" width="259.101" height="193.966"/>
</g>
<g id="Layer_6">
	
		<rect x="315.535" y="304.642" transform="matrix(0.9999 0.0142 -0.0142 0.9999 5.7444 -6.2729)" fill="#00FF00" width="258.766" height="194.056"/>
</g>
<g id="Layer_7">
	
		<rect x="305.406" y="40.538" transform="matrix(0.9833 -0.1819 0.1819 0.9833 -24.2119 76.0722)" fill="#FF0000" width="194.342" height="258.963"/>
</g>
</svg>
