<?xml version="1.0" encoding="utf-8"?>
<!-- Generator: Adobe Illustrator 16.0.0, SVG Export Plug-In . SVG Version: 6.00 Build 0)  -->
<!DOCTYPE svg PUBLIC "-//W3C//DTD SVG 1.1//EN" "http://www.w3.org/Graphics/SVG/1.1/DTD/svg11.dtd">
<svg version="1.1" xmlns="http://www.w3.org/2000/svg" xmlns:xlink="http://www.w3.org/1999/xlink" x="0px" y="0px"
	 width="1700.791px" height="2267.719px" viewBox="0 0 1700.791 2267.719" enable-background="new 0 0 1700.791 2267.719"
	 xml:space="preserve">
<g id="Layer_2_1_">
	
		<rect x="79.476" y="124.986" transform="matrix(0.9966 -0.0829 0.0829 0.9966 -31.4987 38.4026)" fill="#FF0000" width="734.043" height="546.721"/>
</g>
<g id="Layer_3_1_">
	
		<rect x="934.586" y="153.586" transform="matrix(0.9975 0.0704 -0.0704 0.9975 31.728 -88.7947)" fill="#00FF00" width="681.769" height="504.195"/>
</g>
<g id="Layer_4">
	
		<rect x="108.235" y="829.828" transform="matrix(0.9941 0.1085 -0.1085 0.9941 122.3289 -44.9581)" fill="#0000FF" width="732.215" height="543.865"/>
</g>
<g id="Layer_5_1_">
	
		<rect x="1033.643" y="798.005" transform="matrix(0.9882 -0.1533 0.1533 0.9882 -157.7742 208.7061)" fill="#FFFF00" width="481.223" height="658.549"/>
</g>
<g id="Layer_6_1_">
	
		<rect x="95.114" y="1514.114" transform="matrix(0.9929 -0.1188 0.1188 0.9929 -207.309 65.1414)" fill="#FF00FF" width="694.898" height="513.537"/>
</g>
<g id="Layer_7">
	
		<rect x="922.249" y="1631.378" transform="matrix(0.9829 0.1842 -0.1842 0.9829 365.8318 -197.3862)" fill="#00FFFF" width="646.169" height="477.985"/>
</g>
</svg>
