<?xml version="1.0" encoding="utf-8"?>
<!-- Generator: Adobe Illustrator 16.0.0, SVG Export Plug-In . SVG Version: 6.00 Build 0)  -->
<!DOCTYPE svg PUBLIC "-//W3C//DTD SVG 1.1//EN" "http://www.w3.org/Graphics/SVG/1.1/DTD/svg11.dtd">
<svg version="1.1" id="Layer_1" xmlns="http://www.w3.org/2000/svg" xmlns:xlink="http://www.w3.org/1999/xlink" x="0px" y="0px"
	 width="600px" height="800px" viewBox="0 0 600 800" enable-background="new 0 0 600 800" xml:space="preserve">
<g id="grid_x5F_4_x5F_4">
	<path fill="#FF0000" d="M17.993,18.916h334.947l-53.518,382.93l-281.43-35.063V18.916L17.993,18.916z"/>
	<path fill="#00FF00" d="M362.168,18.916h219.607v417.993L308.65,402.77L362.168,18.916z"/>
	<path fill="#0000FF" d="M17.993,374.625L298.5,409.688l-51.672,371.857H17.993V374.625z"/>
	<path fill="#FFFF00" d="M307.728,410.611l274.049,34.141v336.794H256.055L307.728,410.611z"/>
	<rect x="139" y="578.086" fill="#0000EE" width="32" height="32"/>
	<rect x="247.381" y="420.909" fill="#0000DD" width="32" height="32"/>
	<rect x="435.213" y="580.078" fill="#EEEE00" width="32" height="32"/>
	<rect x="538.038" y="455.83" fill="#DDDD00" width="32" height="32"/>
	<rect x="139" y="194.381" fill="#EE0000" width="32" height="32"/>
	<rect x="300" y="30.521" fill="#DD0000" width="32" height="32"/>
	<rect x="435.213" y="194.381" fill="#00EE00" width="32" height="32"/>
	<rect x="538.038" y="30.521" fill="#00DD00" width="32" height="32"/>
</g>
</svg>
