<?xml version="1.0" encoding="utf-8"?>
<!-- Generator: Adobe Illustrator 16.0.0, SVG Export Plug-In . SVG Version: 6.00 Build 0)  -->
<!DOCTYPE svg PUBLIC "-//W3C//DTD SVG 1.1//EN" "http://www.w3.org/Graphics/SVG/1.1/DTD/svg11.dtd">
<svg version="1.1" id="Layer_1" xmlns="http://www.w3.org/2000/svg" xmlns:xlink="http://www.w3.org/1999/xlink" x="0px" y="0px"
	 width="600px" height="800px" viewBox="0 0 600 800" enable-background="new 0 0 600 800" xml:space="preserve">
<g id="grid_x5F_2_x5F_1">
	<path fill="#00FF00" d="M18.5,410.164c0,0,75.784-21.14,168.75-20.649c89.792,0.472,163.524,29.87,255.431,29.87
		c84.401,0,138.319-14.754,138.319-14.754v375.973H18.5V410.164z"/>
	<path fill="#FF0000" d="M18.5,18H581v374.772c0,0-35.16,15.641-138.319,16.599c-68.05,0.631-171.645-29.896-257.275-29.896
		c-87.359,0-166.905,18.83-166.905,18.83V18z"/>
	<rect x="284" y="197.69" fill="#EE0000" width="32" height="32"/>
	<rect x="533.395" y="33.83" fill="#DD0000" width="32" height="32"/>
	<rect x="283.75" y="585.055" fill="#00EE00" width="32" height="32"/>
	<rect x="533.395" y="433" fill="#00DD00" width="32" height="32"/>
</g>
</svg>
