<?xml version="1.0" encoding="utf-8"?>
<!-- Generator: Adobe Illustrator 16.0.0, SVG Export Plug-In . SVG Version: 6.00 Build 0)  -->
<!DOCTYPE svg PUBLIC "-//W3C//DTD SVG 1.1//EN" "http://www.w3.org/Graphics/SVG/1.1/DTD/svg11.dtd">
<svg version="1.1" id="grid_x5F_3_x5F_4" xmlns="http://www.w3.org/2000/svg" xmlns:xlink="http://www.w3.org/1999/xlink" x="0px"
	 y="0px" width="800px" height="600px" viewBox="0 0 800 600" enable-background="new 0 0 800 600" xml:space="preserve">
<path fill-rule="evenodd" clip-rule="evenodd" fill="#FF0000" d="M19.874,581.539V18.462h257.539c0,0-20.682,78.517-22.554,171.692
	c-2.498,124.284,23.477,124.919,23.477,252c0,86.205-23.077,139.385-23.077,139.385H19.874z"/>
<path fill-rule="evenodd" clip-rule="evenodd" fill="#00FF00" d="M532.877,19.385c0,0-26.582,85.054-27.795,190.154
	c-0.886,76.654,25.442,140.984,24.999,240c-0.325,72.886-26.743,132-26.743,132H265.185c0,0,19.614-53.205,21.23-131.076
	c2.68-129.083-22.678-125.599-22.678-238.155c0-117.613,23.601-193.846,23.601-193.846L532.877,19.385z"/>
<path fill-rule="evenodd" clip-rule="evenodd" fill="#0000FF" d="M780.463,18.462v563.077H515.579c0,0,23.961-66.018,23.961-135.692
	c0-103.153-25-139.974-25-240.923c0-86.206,28.692-186.461,28.692-186.461H780.463z"/>
<rect x="635.844" y="284" fill="#0000EE" width="32" height="32"/>
<rect x="734.667" y="32.117" fill="#0000DD" width="32" height="32"/>
<rect x="120.894" y="284" fill="#EE0000" width="32" height="32"/>
<rect x="222.719" y="32.118" fill="#DD0000" width="32" height="32"/>
<rect x="382.307" y="284" fill="#00EE00" width="32" height="32"/>
<rect x="476.593" y="32.118" fill="#00DD00" width="32" height="32"/>
</svg>
