<?xml version="1.0" encoding="utf-8"?>
<!-- Generator: Adobe Illustrator 16.0.0, SVG Export Plug-In . SVG Version: 6.00 Build 0)  -->
<!DOCTYPE svg PUBLIC "-//W3C//DTD SVG 1.1//EN" "http://www.w3.org/Graphics/SVG/1.1/DTD/svg11.dtd">
<svg version="1.1" id="grid_x5F_5_x5F_4" xmlns="http://www.w3.org/2000/svg" xmlns:xlink="http://www.w3.org/1999/xlink" x="0px"
	 y="0px" width="800px" height="600px" viewBox="0 0 800 600" enable-background="new 0 0 800 600" xml:space="preserve">
<path fill-rule="evenodd" clip-rule="evenodd" fill="#FF0000" d="M17.532,18.916h223.646v286.392H17.532V18.916z"/>
<path fill-rule="evenodd" clip-rule="evenodd" fill="#00FF00" d="M17.532,312.916h223.646v267.938H17.532V312.916z"/>
<path fill-rule="evenodd" clip-rule="evenodd" fill="#FFFF00" d="M249.135,312.916h223.646v267.938H249.135V312.916z"/>
<path fill-rule="evenodd" clip-rule="evenodd" fill="#0000FF" d="M249.135,18.916h223.646v286.392H249.135V18.916z"/>
<path fill-rule="evenodd" clip-rule="evenodd" fill="#FF00FF" d="M636.678,18.455c80.009,0,144.868,126,144.868,281.43
	s-64.859,281.43-144.868,281.43c-80.008,0-144.867-126-144.867-281.43S556.67,18.455,636.678,18.455z"/>
<rect x="344.958" y="146.112" fill="#0000EE" width="32" height="32"/>
<rect x="428.651" y="31.598" fill="#0000DD" width="32" height="32"/>
<rect x="620.678" y="284" fill="#EE00EE" width="32" height="32"/>
<rect x="677.651" y="76.805" fill="#DD00DD" width="32" height="32"/>
<rect x="344.958" y="430.885" fill="#EEEE00" width="32" height="32"/>
<rect x="428.651" y="325.805" fill="#DDDD00" width="32" height="32"/>
<rect x="113.355" y="146.112" fill="#EE0000" width="32" height="32"/>
<rect x="198.958" y="31.598" fill="#DD0000" width="32" height="32"/>
<rect x="113.355" y="430.885" fill="#00EE00" width="32" height="32"/>
<rect x="198.958" y="325.805" fill="#00DD00" width="32" height="32"/>
</svg>
