<?xml version="1.0" encoding="utf-8"?>
<!-- Generator: Adobe Illustrator 16.0.0, SVG Export Plug-In . SVG Version: 6.00 Build 0)  -->
<!DOCTYPE svg PUBLIC "-//W3C//DTD SVG 1.1//EN" "http://www.w3.org/Graphics/SVG/1.1/DTD/svg11.dtd">
<svg version="1.1" id="Layer_1" xmlns="http://www.w3.org/2000/svg" xmlns:xlink="http://www.w3.org/1999/xlink" x="0px" y="0px"
	 width="600px" height="800px" viewBox="0 0 600 800" enable-background="new 0 0 600 800" xml:space="preserve">
<g id="grid_x5F_3_x5F_3">
	<path fill="#FF0000" stroke="#FFFFFF" stroke-miterlimit="10" d="M36.909,17.532h525.95c10.192,0,18.454,8.262,18.454,18.455
		v270.357c0,10.192-8.262,18.455-18.454,18.455H36.909c-10.192,0-18.454-8.262-18.454-18.455V35.986
		C18.455,25.794,26.717,17.532,36.909,17.532z"/>
	<path fill="#00FF00" stroke="#FFFFFF" stroke-miterlimit="10" d="M36.909,338.639h169.549c10.191,0,18.454,8.262,18.454,18.454
		v407.843c0,10.192-8.263,18.454-18.454,18.454H36.909c-10.192,0-18.454-8.262-18.454-18.454V357.093
		C18.455,346.901,26.717,338.639,36.909,338.639z"/>
	<path fill="#0000FF" stroke="#FFFFFF" stroke-miterlimit="10" d="M257.671,338.639H562.86c10.192,0,18.454,8.262,18.454,18.454
		v407.843c0,10.192-8.262,18.454-18.454,18.454H257.671c-10.192,0-18.455-8.262-18.455-18.454V357.093
		C239.217,346.901,247.479,338.639,257.671,338.639z"/>
	<rect x="394.266" y="545.015" fill="#0000EE" width="32" height="32"/>
	<rect x="534.395" y="355.521" fill="#0000DD" width="32" height="32"/>
	<rect x="283.885" y="155.165" fill="#EE0000" width="32" height="32"/>
	<rect x="534.395" y="34.83" fill="#DD0000" width="32" height="32"/>
	<rect x="105.684" y="545.015" fill="#00EE00" width="32" height="32"/>
	<rect x="176.721" y="355.521" fill="#00DD00" width="32" height="32"/>
</g>
</svg>
