<?xml version="1.0" encoding="utf-8"?>
<!-- Generator: Adobe Illustrator 16.0.0, SVG Export Plug-In . SVG Version: 6.00 Build 0)  -->
<!DOCTYPE svg PUBLIC "-//W3C//DTD SVG 1.1//EN" "http://www.w3.org/Graphics/SVG/1.1/DTD/svg11.dtd">
<svg version="1.1" id="Layer_1" xmlns="http://www.w3.org/2000/svg" xmlns:xlink="http://www.w3.org/1999/xlink" x="0px" y="0px"
	 width="600px" height="800px" viewBox="0 0 600 800" enable-background="new 0 0 600 800" xml:space="preserve">
<g id="grid_x5F_5_x5F_1">
	<path fill="#FF0000" d="M17.993,18.139h224.099v310.035H17.993V18.139z"/>
	<path fill="#00FF00" d="M251.842,18.139h329.533v310.035H251.842V18.139z"/>
	<path fill="#0000FF" d="M17.993,339.562H307.37v443.829H17.993V339.562z"/>
	<path fill="#FFFF00" d="M317.12,339.562h264.255v220.53H317.12V339.562z"/>
	<path fill="#FF00FF" d="M317.12,570.242h264.255V783.39H317.12V570.242z"/>
	<rect x="146.682" y="545.477" fill="#0000EE" width="32" height="32"/>
	<rect x="264.505" y="352" fill="#0000DD" width="32" height="32"/>
	<rect x="433.248" y="660.816" fill="#EE00EE" width="32" height="32"/>
	<rect x="539" y="581" fill="#DD00DD" width="32" height="32"/>
	<rect x="433.248" y="433.826" fill="#EEEE00" width="32" height="32"/>
	<rect x="539" y="352" fill="#DDDD00" width="32" height="32"/>
	<rect x="114.042" y="157.156" fill="#EE0000" width="32" height="32"/>
	<rect x="199.595" y="29.11" fill="#DD0000" width="32" height="32"/>
	<rect x="400.608" y="157.156" fill="#00EE00" width="32" height="32"/>
	<rect x="539" y="29.11" fill="#00DD00" width="32" height="32"/>
</g>
</svg>
