<?xml version="1.0" encoding="utf-8"?>
<!-- Generator: Adobe Illustrator 16.0.0, SVG Export Plug-In . SVG Version: 6.00 Build 0)  -->
<!DOCTYPE svg PUBLIC "-//W3C//DTD SVG 1.1//EN" "http://www.w3.org/Graphics/SVG/1.1/DTD/svg11.dtd">
<svg version="1.1" id="grid_x5F_2_x5F_5" xmlns="http://www.w3.org/2000/svg" xmlns:xlink="http://www.w3.org/1999/xlink" x="0px"
	 y="0px" width="800px" height="600px" viewBox="0 0 800 600" enable-background="new 0 0 800 600" xml:space="preserve">
<path fill-rule="evenodd" clip-rule="evenodd" fill="#00FF00" stroke="#FFFFFF" stroke-miterlimit="10" d="M298.168,144.835
	C192.546,16.843-1.51,126.727,45.583,291.4c30.109,105.309,112.731,136.398,189.347,159.019
	c74.293,21.941,161.32,43.456,175.374,65.046c-1.066-24.985,58.798-80.775,103.966-138.801
	c49.387-63.446,109.187-146.122,75.39-250.304C538.588-31.093,324.81-13.721,298.168,144.835z"/>
<path fill-rule="evenodd" clip-rule="evenodd" fill="#FF0000" stroke="#FFFFFF" stroke-miterlimit="10" d="M616.061,357.753
	c6.818-99.968-124.048-132.512-171.81-40.81c-30.546,58.641-7.192,106.605,17.045,148.363c23.5,40.495,52.767,86.097,49.964,101.395
	c9.916-11.387,59.386-10.935,103.331-17.573c48.051-7.258,108.665-18.609,137.124-78.289
	C794.729,380.644,693.65,299.382,616.061,357.753z"/>
<rect x="565.308" y="423.813" fill="#EE0000" width="29.539" height="29.538"/>
<rect x="706.501" y="382.338" fill="#DD0000" width="29.539" height="29.538"/>
<rect x="326.1" y="273.462" fill="#00EE00" width="29.539" height="29.538"/>
<rect x="504.193" y="61.997" fill="#00DD00" width="29.538" height="29.538"/>
</svg>
