<?xml version="1.0" encoding="utf-8"?>
<!-- Generator: Adobe Illustrator 16.0.0, SVG Export Plug-In . SVG Version: 6.00 Build 0)  -->
<!DOCTYPE svg PUBLIC "-//W3C//DTD SVG 1.1//EN" "http://www.w3.org/Graphics/SVG/1.1/DTD/svg11.dtd">
<svg version="1.1" id="Layer_1" xmlns="http://www.w3.org/2000/svg" xmlns:xlink="http://www.w3.org/1999/xlink" x="0px" y="0px"
	 width="600px" height="800px" viewBox="0 0 600 800" enable-background="new 0 0 600 800" xml:space="preserve">
<g id="grid_x5F_5_x5F_2">
	<path fill="#FF0000" d="M155.956,18.954c76.188,0,137.949,63.414,137.949,141.639c0,78.225-61.762,141.639-137.949,141.639
		c-76.188,0-137.949-63.414-137.949-141.639C18.007,82.368,79.769,18.954,155.956,18.954z"/>
	<path fill="#00FF00" d="M17.548,310.035h276.816v238.062H17.548V310.035z"/>
	<path fill="#0000FF" d="M18.009,558.247h275.894v223.299H18.009V558.247z"/>
	<path fill="#FFFF00" d="M304.96,18.954h276.815v375.548H304.96V18.954z"/>
	<path fill="#FF00FF" d="M304.96,404.152h276.815v377.394H304.96V404.152z"/>
	<rect x="139.956" y="653.896" fill="#0000EE" width="32" height="32"/>
	<rect x="251.246" y="568.081" fill="#0000DD" width="32" height="32"/>
	<rect x="427.366" y="576.849" fill="#EE00EE" width="32" height="32"/>
	<rect x="540.855" y="415.064" fill="#DD00DD" width="32" height="32.001"/>
	<rect x="427.366" y="190.728" fill="#EEEE00" width="32" height="32"/>
	<rect x="540.856" y="32.406" fill="#DDDD00" width="32" height="32"/>
	<rect x="139.956" y="144.593" fill="#EE0000" width="32" height="32"/>
	<rect x="215.419" y="65.406" fill="#DD0000" width="32" height="32"/>
	<rect x="139.956" y="413.064" fill="#00EE00" width="32" height="32.001"/>
	<rect x="251.246" y="322.093" fill="#00DD00" width="32" height="32"/>
</g>
</svg>
