<?xml version="1.0" encoding="utf-8"?>
<!-- Generator: Adobe Illustrator 16.0.0, SVG Export Plug-In . SVG Version: 6.00 Build 0)  -->
<!DOCTYPE svg PUBLIC "-//W3C//DTD SVG 1.1//EN" "http://www.w3.org/Graphics/SVG/1.1/DTD/svg11.dtd">
<svg version="1.1" id="grid_x5F_6_x5F_5" xmlns="http://www.w3.org/2000/svg" xmlns:xlink="http://www.w3.org/1999/xlink" x="0px"
	 y="0px" width="800px" height="600px" viewBox="0 0 800 600" enable-background="new 0 0 800 600" xml:space="preserve">
<rect x="25" y="18.333" fill-rule="evenodd" clip-rule="evenodd" fill="#FF0000" width="498.667" height="368.667"/>
<rect x="25" y="399.666" fill-rule="evenodd" clip-rule="evenodd" fill="#00FF00" width="242.667" height="180"/>
<rect x="280.999" y="399.666" fill-rule="evenodd" clip-rule="evenodd" fill="#0000FF" width="242.667" height="180"/>
<rect x="534.998" y="18.333" fill-rule="evenodd" clip-rule="evenodd" fill="#FFFF00" width="242.668" height="180"/>
<rect x="534.998" y="207" fill-rule="evenodd" clip-rule="evenodd" fill="#FF00FF" width="242.668" height="180"/>
<rect x="534.998" y="399.667" fill-rule="evenodd" clip-rule="evenodd" fill="#00FFFF" width="242.668" height="179.999"/>
<rect x="384" y="473.666" fill="#0000EE" width="32" height="32"/>
<rect x="480.157" y="409.598" fill="#0000DD" width="32" height="32"/>
<rect x="640.332" y="473.666" fill="#00EEEE" width="32" height="32"/>
<rect x="734.651" y="409.598" fill="#00DDDD" width="32" height="32"/>
<rect x="640.332" y="281" fill="#EE00EE" width="32" height="32"/>
<rect x="734.651" y="218.805" fill="#DD00DD" width="32" height="32"/>
<rect x="640.332" y="92.333" fill="#EEEE00" width="32" height="32"/>
<rect x="734.651" y="30.805" fill="#DDDD00" width="32" height="32"/>
<rect x="258.333" y="186.667" fill="#EE0000" width="32" height="32"/>
<rect x="480.157" y="30.805" fill="#DD0000" width="32" height="32"/>
<rect x="130.333" y="473.666" fill="#00EE00" width="32" height="32"/>
<rect x="224.497" y="409.598" fill="#00DD00" width="32" height="32"/>
</svg>
