<?xml version="1.0" encoding="utf-8"?>
<!-- Generator: Adobe Illustrator 16.0.0, SVG Export Plug-In . SVG Version: 6.00 Build 0)  -->
<!DOCTYPE svg PUBLIC "-//W3C//DTD SVG 1.1//EN" "http://www.w3.org/Graphics/SVG/1.1/DTD/svg11.dtd">
<svg version="1.1" id="Layer_1" xmlns="http://www.w3.org/2000/svg" xmlns:xlink="http://www.w3.org/1999/xlink" x="0px" y="0px"
	 width="600px" height="800px" viewBox="0 0 600 800" enable-background="new 0 0 600 800" xml:space="preserve">
<g id="grid_x5F_6_x5F_2">
	<path fill="#FF0000" d="M17.993,17.532H294.81v277.739H17.993V17.532z"/>
	<path fill="#00FF00" d="M17.993,306.344H294.81v260.208H17.993V306.344z"/>
	<path fill="#0000FF" d="M17.993,578.547H294.81v202.999H17.993V578.547z"/>
	<path fill="#FFFF00" d="M304.96,17.532h276.815V216.84H304.96V17.532z"/>
	<path fill="#FF00FF" d="M304.96,227.912h276.815v266.667H304.96V227.912z"/>
	<path fill="#00FFFF" d="M304.96,506.574h276.815v274.972H304.96V506.574z"/>
	<rect x="140.401" y="664.047" fill="#0000EE" width="32" height="32"/>
	<rect x="250.395" y="589.623" fill="#0000DD" width="32" height="32"/>
	<rect x="427.367" y="628.061" fill="#00EEEE" width="32" height="32"/>
	<rect x="539.038" y="517.623" fill="#00DDDD" width="32" height="32"/>
	<rect x="427.367" y="345.246" fill="#EE00EE" width="32" height="32"/>
	<rect x="539.038" y="239" fill="#DD00DD" width="32" height="32"/>
	<rect x="427.367" y="101.186" fill="#EEEE00" width="32" height="32"/>
	<rect x="539.038" y="29.83" fill="#DDDD00" width="32" height="32"/>
	<rect x="140.401" y="140.401" fill="#EE0000" width="32" height="32"/>
	<rect x="250.395" y="29.83" fill="#DD0000" width="32" height="32"/>
	<rect x="140.401" y="420.447" fill="#00EE00" width="32" height="32"/>
	<rect x="250.395" y="319.521" fill="#00DD00" width="32" height="32"/>
</g>
</svg>
