<?xml version="1.0" encoding="utf-8"?>
<!-- Generator: Adobe Illustrator 16.0.0, SVG Export Plug-In . SVG Version: 6.00 Build 0)  -->
<!DOCTYPE svg PUBLIC "-//W3C//DTD SVG 1.1//EN" "http://www.w3.org/Graphics/SVG/1.1/DTD/svg11.dtd">
<svg version="1.1" id="grid_x5F_5_x5F_5" xmlns="http://www.w3.org/2000/svg" xmlns:xlink="http://www.w3.org/1999/xlink" x="0px"
	 y="0px" width="800px" height="600px" viewBox="0 0 800 600" enable-background="new 0 0 800 600" xml:space="preserve">
<path fill-rule="evenodd" clip-rule="evenodd" fill="#FF0000" d="M18.461,18.923h250.713v367.021H18.461V18.923z"/>
<path fill-rule="evenodd" clip-rule="evenodd" fill="#0000FF" d="M278.21,18.923h251.272v367.021H278.21V18.923z"/>
<path fill-rule="evenodd" clip-rule="evenodd" fill="#FFFF00" d="M536.672,18.923h245.174v367.021H536.672V18.923z"/>
<path fill-rule="evenodd" clip-rule="evenodd" fill="#00FF00" d="M18.461,393.134h250.713v187.943H18.461V393.134z"/>
<path fill-rule="evenodd" clip-rule="evenodd" fill="#FF00FF" d="M277.203,393.134h504.559v187.943H277.203V393.134z"/>
<rect x="384" y="186.433" fill="#0000EE" width="32" height="32"/>
<rect x="486.157" y="29.701" fill="#0000DD" width="32" height="32"/>
<rect x="513.482" y="471.105" fill="#EE00EE" width="32" height="32"/>
<rect x="739.651" y="403.701" fill="#DD00DD" width="32" height="32"/>
<rect x="643.259" y="186.433" fill="#EEEE00" width="32" height="32"/>
<rect x="739.651" y="29.701" fill="#DDDD00" width="32" height="32"/>
<rect x="127.818" y="186.433" fill="#EE0000" width="32" height="32"/>
<rect x="226.171" y="29.701" fill="#DD0000" width="32" height="32"/>
<rect x="127.818" y="471.105" fill="#00EE00" width="32" height="32"/>
<rect x="226.171" y="403.701" fill="#00DD00" width="32" height="32"/>
</svg>
