<?xml version="1.0" encoding="utf-8"?>
<!-- Generator: Adobe Illustrator 16.0.0, SVG Export Plug-In . SVG Version: 6.00 Build 0)  -->
<!DOCTYPE svg PUBLIC "-//W3C//DTD SVG 1.1//EN" "http://www.w3.org/Graphics/SVG/1.1/DTD/svg11.dtd">
<svg version="1.1" id="grid_x5F_4_x5F_5" xmlns="http://www.w3.org/2000/svg" xmlns:xlink="http://www.w3.org/1999/xlink" x="0px"
	 y="0px" width="800px" height="600px" viewBox="0 0 800 600" enable-background="new 0 0 800 600" xml:space="preserve">
<path fill-rule="evenodd" clip-rule="evenodd" fill="#FF0000" d="M18.461,18.461h227.077v563.077H18.461V18.461z"/>
<path fill-rule="evenodd" clip-rule="evenodd" fill="#00FF00" d="M253.846,18.461h292.616v267.692H253.846V18.461z"/>
<path fill-rule="evenodd" clip-rule="evenodd" fill="#0000FF" d="M253.846,295.385h292.616v286.153H253.846V295.385z"/>
<path fill-rule="evenodd" clip-rule="evenodd" fill="#FFFF00" d="M554.77,18.461h227.076v563.077H554.77V18.461z"/>
<rect x="384.154" y="422.461" fill="#0000EE" width="32" height="32"/>
<rect x="501.157" y="307.598" fill="#0000DD" width="32" height="32"/>
<rect x="652.308" y="284" fill="#EEEE00" width="32" height="32"/>
<rect x="734.814" y="34" fill="#DDDD00" width="32" height="32"/>
<rect x="116" y="291.598" fill="#EE0000" width="32" height="32"/>
<rect x="198.171" y="34" fill="#DD0000" width="32" height="32"/>
<rect x="384.154" y="136.307" fill="#00EE00" width="32" height="32"/>
<rect x="501.157" y="34" fill="#00DD00" width="32" height="32"/>
</svg>
