<?xml version="1.0" encoding="utf-8"?>
<!-- Generator: Adobe Illustrator 16.0.0, SVG Export Plug-In . SVG Version: 6.00 Build 0)  -->
<!DOCTYPE svg PUBLIC "-//W3C//DTD SVG 1.1//EN" "http://www.w3.org/Graphics/SVG/1.1/DTD/svg11.dtd">
<svg version="1.1" id="grid_x5F_2_x5F_4" xmlns="http://www.w3.org/2000/svg" xmlns:xlink="http://www.w3.org/1999/xlink" x="0px"
	 y="0px" width="800px" height="600px" viewBox="0 0 800 600" enable-background="new 0 0 800 600" xml:space="preserve">
<path fill-rule="evenodd" clip-rule="evenodd" fill="#FF0000" d="M212.722,16.609c94.022,0,170.243,126.414,170.243,282.353
	c0,155.939-76.22,282.353-170.243,282.353c-94.022,0-170.242-126.413-170.242-282.353C42.48,143.023,118.7,16.609,212.722,16.609z"
	/>
<path fill-rule="evenodd" clip-rule="evenodd" fill="#00FF00" d="M593.325,16.609c94.023,0,170.243,126.414,170.243,282.353
	c0,155.939-76.22,282.353-170.243,282.353c-94.021,0-170.242-126.413-170.242-282.353
	C423.083,143.023,499.304,16.609,593.325,16.609z"/>
<rect x="197.958" y="285.121" fill="#EE0000" width="29.527" height="29.527"/>
<rect x="274.606" y="74.58" fill="#DD0000" width="29.527" height="29.527"/>
<rect x="578.563" y="285.121" fill="#00EE00" width="29.526" height="29.527"/>
<rect x="652.836" y="74.58" fill="#00DD00" width="29.527" height="29.527"/>
</svg>
